<svg width="1024" height="1024" viewBox="0 0 1024 1024" fill="none" xmlns="http://www.w3.org/2000/svg">
<path d="M47.909 490.312C47.909 388.162 134.772 344.447 230.098 344.447C341.46 344.447 404.269 404.221 404.269 487.635H315.179C312.061 454.626 291.57 418.049 227.425 418.049C177.089 418.049 142.79 440.798 142.79 480.498C142.79 530.012 208.271 539.379 261.725 549.193C349.033 564.805 417.632 592.015 417.632 681.229C417.632 776.688 341.906 832 223.416 832C110.272 832 39 778.472 39 694.165H135.217C140.563 732.527 173.971 758.399 229.652 758.399C292.461 758.399 321.415 728.512 321.415 693.719C321.415 644.651 266.625 636.622 203.816 624.132C117.845 605.843 47.909 576.403 47.909 490.312Z" fill="#FFFEFE"/>
<path d="M444.423 832V191H543.312V426.524H546.876C562.912 395.299 605.675 353.369 682.738 353.369C778.51 353.369 848 414.034 848 529.12V832H749.556V549.193C749.556 473.361 705.902 439.46 647.102 439.46C577.167 439.46 543.312 488.974 543.312 550.977V832H444.423Z" fill="#FFFEFE"/>
<rect x="887" y="735" width="97" height="97" fill="white"/>
</svg>
